<svg preserveAspectRatio="none" overflow="visible" style="display: block;" width="20.8" height="25.6" viewBox="0 0 20.8 25.6" fill="none" xmlns="http://www.w3.org/2000/svg">
<g id="Group 1171275811">
<path id="Vector" d="M8.89791 0.251586C5.93096 2.19838 3.02144 2.82142 1.37478 3.01981C0.587308 3.11467 0 3.77915 0 4.56591V11.6979C0 16.2723 2.78425 20.3779 7.04806 22.0908L9.13982 22.9312C9.3299 23.0075 9.53156 23.0451 9.73318 23.044H11.0668L12.4183 22.0606C16.6821 20.2997 19.4664 16.1628 19.4664 11.5885V4.45639C19.4664 3.66963 18.879 3.01176 18.0916 2.92574C16.445 2.74589 14.062 1.91441 11.095 0.00100679C11.095 0.00100679 10.0247 -0.000994748 9.73314 0.000646426C9.44162 0.0022876 9.15027 0.0859875 8.89791 0.251586Z" fill="url(#paint0_linear_0_353)"/>
<path id="Vector_2" d="M10.2315 0.251599C7.26458 2.19839 4.35506 2.82144 2.7084 3.01982C1.92093 3.11469 1.33362 3.77916 1.33362 4.56592V11.6979C1.33362 16.2723 4.11787 20.3779 8.38168 22.0908L10.4734 22.9312C10.8536 23.0839 11.28 23.0815 11.6602 22.9245L13.7519 22.0606C18.0158 20.2997 20.8 16.1629 20.8 11.5885V4.45641C20.8 3.66964 20.2127 3.01177 19.4252 2.92575C17.7786 2.7459 14.8691 2.1556 11.9021 0.242192C11.3974 -0.0832806 10.7362 -0.079558 10.2315 0.251599Z" fill="url(#paint1_linear_0_353)"/>
<path id="Vector_3" d="M10.3499 1.84785C7.80322 3.51888 5.30577 4.0537 3.89239 4.22398C3.21648 4.3054 2.71233 4.87577 2.71233 5.55113V11.673C2.71233 15.5994 5.10222 19.1235 8.76211 20.5938L10.5576 21.3151C10.8839 21.4462 11.2499 21.4441 11.5762 21.3094L13.3717 20.5679C17.0316 19.0564 19.4215 15.5055 19.4215 11.579V5.45711C19.4215 4.78178 18.9174 4.2171 18.2414 4.14325C16.8281 3.98886 14.3306 3.48217 11.7839 1.8398C11.3507 1.56044 10.7831 1.5636 10.3499 1.84785Z" fill="url(#paint2_linear_0_353)"/>
<path id="Vector_4" d="M11.067 17.296C14.0505 17.296 16.4691 14.7109 16.4691 11.522C16.4691 8.33317 14.0505 5.7481 11.067 5.7481C8.08349 5.7481 5.66487 8.33317 5.66487 11.522C5.66487 14.7109 8.08349 17.296 11.067 17.296Z" fill="url(#paint3_linear_0_353)"/>
<path id="Vector_5" d="M14.0328 10.5254H12.2683C12.1596 10.5254 12.0714 10.4379 12.0714 10.33V8.57871C12.0714 8.47075 11.9832 8.38325 11.8744 8.38325H10.2594C10.1507 8.38325 10.0625 8.47075 10.0625 8.57871V10.33C10.0625 10.4379 9.97434 10.5254 9.86557 10.5254H8.10106C7.99229 10.5254 7.90413 10.6129 7.90413 10.7209V12.3237C7.90413 12.4317 7.99229 12.5192 8.10106 12.5192H9.86557C9.97434 12.5192 10.0625 12.6067 10.0625 12.7147V14.4659C10.0625 14.5739 10.1507 14.6614 10.2594 14.6614H11.8744C11.9832 14.6614 12.0714 14.5739 12.0714 14.4659V12.7147C12.0714 12.6067 12.1596 12.5192 12.2683 12.5192H14.0328C14.1416 12.5192 14.2298 12.4317 14.2298 12.3237V10.7209C14.2298 10.6129 14.1416 10.5254 14.0328 10.5254Z" fill="url(#paint4_linear_0_353)"/>
<path id="Vector_6" opacity="0.2" d="M10.1313 25.6C15.4384 25.6 19.7406 25.1048 19.7406 24.494C19.7406 23.8831 15.4384 23.3879 10.1313 23.3879C4.8243 23.3879 0.522095 23.8831 0.522095 24.494C0.522095 25.1048 4.8243 25.6 10.1313 25.6Z" fill="url(#paint5_radial_0_353)"/>
</g>
<defs>
<linearGradient id="paint0_linear_0_353" x1="9.73322" y1="23.2325" x2="9.73322" y2="8.72757" gradientUnits="userSpaceOnUse">
<stop stop-color="#606060"/>
<stop offset="0.2424" stop-color="#666666"/>
<stop offset="0.5713" stop-color="#777777"/>
<stop offset="0.9483" stop-color="#939393"/>
<stop offset="0.997" stop-color="#989898"/>
</linearGradient>
<linearGradient id="paint1_linear_0_353" x1="11.0668" y1="31.4552" x2="20.6968" y2="-4.9592" gradientUnits="userSpaceOnUse">
<stop offset="0.003" stop-color="#939393"/>
<stop offset="0.1044" stop-color="#A3A3A3"/>
<stop offset="0.3756" stop-color="#CBCBCB"/>
<stop offset="0.6245" stop-color="#E7E7E7"/>
<stop offset="0.8407" stop-color="#F8F8F8"/>
<stop offset="1" stop-color="white"/>
</linearGradient>
<linearGradient id="paint2_linear_0_353" x1="-34.9" y1="32.7398" x2="10.7718" y2="-6.84042" gradientUnits="userSpaceOnUse">
<stop offset="0.003" stop-color="#939393"/>
<stop offset="0.1044" stop-color="#A3A3A3"/>
<stop offset="0.3756" stop-color="#CBCBCB"/>
<stop offset="0.6245" stop-color="#E7E7E7"/>
<stop offset="0.8407" stop-color="#F8F8F8"/>
<stop offset="1" stop-color="white"/>
</linearGradient>
<linearGradient id="paint3_linear_0_353" x1="11.067" y1="4.40253" x2="11.067" y2="18.3643" gradientUnits="userSpaceOnUse">
<stop stop-color="white" stop-opacity="0.7"/>
<stop offset="0.2574" stop-color="white" stop-opacity="0.6759"/>
<stop offset="0.6065" stop-color="white" stop-opacity="0.6081"/>
<stop offset="0.997" stop-color="white" stop-opacity="0.5"/>
</linearGradient>
<linearGradient id="paint4_linear_0_353" x1="12.752" y1="13.9963" x2="6.23897" y2="12.1734" gradientUnits="userSpaceOnUse">
<stop stop-color="#AA6FFF"/>
<stop offset="0.2574" stop-color="#B075FF"/>
<stop offset="0.6065" stop-color="#C186FF"/>
<stop offset="0.997" stop-color="#DDA2FF"/>
</linearGradient>
<radialGradient id="paint5_radial_0_353" cx="0" cy="0" r="1" gradientUnits="userSpaceOnUse" gradientTransform="translate(10.1274 24.4949) scale(9.49968 1.119)">
<stop stop-opacity="0.7"/>
<stop offset="1" stop-color="#414042" stop-opacity="0"/>
</radialGradient>
</defs>
</svg>
