<svg xmlns="http://www.w3.org/2000/svg" viewBox="-0.5 -4 37 37" fill="none">
  <path d="M36.3625 9.90737V18.229C36.3625 18.8687 36.0719 19.4203 35.4815 19.8024C28.1062 24.577 22.5227 26.5822 20.5684 27.1406C17.8751 27.9114 16.4472 27.8301 16.2138 27.8142C11.2938 27.4638 3.00781 20.7722 3.00781 20.7722C3.00781 20.7722 9.76981 22.4044 25.3922 15.0572C28.3213 13.6804 31.5913 12.193 35.3923 10.4522C35.3923 10.4522 36.2229 10.0972 36.3625 9.90958V9.90737Z" fill="#5427C1"/>
  <path d="M35.9735 9.62482C36.017 9.58865 36.0719 9.54112 36.0971 9.50947C36.1314 9.46652 36.1611 9.4236 36.1794 9.3716C36.2298 9.23144 36.2138 9.05738 36.1337 8.92852C35.9895 8.69341 35.7469 8.53737 35.4815 8.36555C28.1062 3.59099 22.5227 1.58577 20.5684 1.02738C17.8751 0.256491 16.4472 0.33788 16.2138 0.353705C11.2938 0.704111 3.00781 7.39582 3.00781 7.39582C3.00781 7.39582 9.76982 5.76356 25.3922 13.1108C25.8957 13.3482 26.4083 13.5878 26.9323 13.8297L35.4678 9.91867C35.4678 9.91867 35.898 9.6836 35.9735 9.62482Z" fill="#986DFA"/>
  <path d="M10.9276 14.0761C10.9368 12.3014 11.161 10.5245 11.5752 8.76798L11.6301 8.54864C8.55459 7.83426 6.28458 7.68289 4.92303 7.68289C3.79946 7.68289 3.2022 7.78454 2.99854 7.8275C2.6324 7.90662 2.37384 8.19603 2.18849 8.43792C1.0878 9.88024 0.458496 11.9352 0.458496 14.0761C0.458496 16.2169 1.0878 18.2741 2.18849 19.7142C2.37384 19.9561 2.6324 20.2432 2.99854 20.3246C3.2022 20.3676 3.79946 20.4692 4.92303 20.4692C6.28458 20.4692 8.55231 20.3178 11.6301 19.6035L11.5752 19.3841C11.161 17.6276 10.9368 15.8507 10.9276 14.0761Z" fill="#B99AFA"/>
</svg>
